<svg width="117" height="204" viewBox="0 0 117 204" fill="none" xmlns="http://www.w3.org/2000/svg">
<path fill-rule="evenodd" clip-rule="evenodd" d="M114.794 19.1503C117.397 15.8808 116.006 12.4375 114.76 10.815L105.48 1.53555C103.528 -0.417084 100.362 -0.417084 98.4092 1.53555L1.53554 98.4092C-0.41708 100.362 -0.41708 103.528 1.53554 105.48L98.4092 202.354C100.362 204.306 103.528 204.306 105.48 202.354L114.711 193.123L114.5 193C116 191.667 118.1 188.1 114.5 184.5C114.409 184.409 114.337 184.318 114.282 184.226L35.5355 105.48C33.5829 103.528 33.5829 100.362 35.5355 98.4092L114.794 19.1503Z" fill="#B247A7"/>
</svg>
