<svg width="117" height="204" viewBox="0 0 117 204" fill="none" xmlns="http://www.w3.org/2000/svg">
<path fill-rule="evenodd" clip-rule="evenodd" d="M1.69328 184.739C-0.908877 188.009 0.481733 191.452 1.72796 193.074L11.0075 202.354C12.9601 204.306 16.126 204.306 18.0786 202.354L114.952 105.48C116.905 103.528 116.905 100.362 114.952 98.4092L18.0786 1.53555C16.126 -0.41707 12.9602 -0.41707 11.0075 1.53555L1.7765 10.7666L1.98777 10.8894C0.487768 12.2227 -1.61223 15.7894 1.98777 19.3894C2.0786 19.4802 2.15117 19.5715 2.20611 19.6631L80.9522 98.4092C82.9048 100.362 82.9048 103.528 80.9522 105.48L1.69328 184.739Z" fill="#B247A7"/>
</svg>
