<svg id="SvgjsSvg1026" width="288" height="288" xmlns="http://www.w3.org/2000/svg" version="1.1" xmlns:xlink="http://www.w3.org/1999/xlink" xmlns:svgjs="http://svgjs.com/svgjs"><defs id="SvgjsDefs1027"></defs><g id="SvgjsG1028"><svg xmlns="http://www.w3.org/2000/svg" width="288" height="288" viewBox="0 0 18 18"><path fill="#4462ff" fill-rule="nonzero" d="M16.3337981,17.5 C16.5613497,17.5 16.7636178,17.4483425 16.9406023,17.3450276 C17.1175869,17.2417127 17.255066,17.1023941 17.3530396,16.9270718 C17.4510132,16.7517495 17.5,16.554512 17.5,16.3353591 C17.5,16.1850829 17.4731363,16.0379374 17.4194088,15.8939227 C17.3656814,15.7499079 17.2819297,15.621547 17.1681539,15.5088398 L17.1681539,15.5088398 L13.1157939,11.4884844 L13.2701478,11.2741022 C13.4579964,10.9987914 13.6260675,10.7096124 13.7743612,10.4065651 L13.9160625,10.098895 C14.2763525,9.26611418 14.4564975,8.37384899 14.4564975,7.42209945 C14.4564975,6.47034991 14.2763525,5.57651934 13.9160625,4.74060773 C13.5557724,3.90469613 13.0548429,3.16896869 12.4132738,2.53342541 C11.7717048,1.89788214 11.0290017,1.40009208 10.1851645,1.04005525 C9.34132738,0.680018416 8.43902212,0.5 7.47824875,0.5 C6.51747537,0.5 5.61675033,0.680018416 4.77607362,1.04005525 C3.93539691,1.40009208 3.19269381,1.89788214 2.54796431,2.53342541 C1.9032348,3.16896869 1.40072504,3.90313076 1.04043503,4.7359116 C0.680145008,5.56869245 0.5,6.4640884 0.5,7.42209945 C0.5,8.37384899 0.680145008,9.26611418 1.04043503,10.098895 C1.40072504,10.9316759 1.90165458,11.6658379 2.54322365,12.3013812 C3.18479271,12.9369245 3.92749582,13.4347145 4.77133296,13.7947514 C5.61517011,14.1547882 6.51747537,14.3348066 7.47824875,14.3348066 C8.43902212,14.3348066 9.34132738,14.1547882 10.1851645,13.7947514 C10.6070831,13.614733 11.0037182,13.4002762 11.3750697,13.1513812 L11.4138293,13.1244517 L15.4994423,17.1618785 C15.5847741,17.2464088 15.6789947,17.3150898 15.782104,17.3679213 L15.8881762,17.4154696 C16.0335564,17.4718232 16.182097,17.5 16.3337981,17.5 Z M7.47824875,12.6535912 C6.75766871,12.6535912 6.07659416,12.5174033 5.4350251,12.2450276 C4.79345603,11.9726519 4.23089794,11.5938306 3.74735081,11.1085635 C3.26380368,10.6232965 2.88455103,10.0660221 2.60959286,9.43674033 C2.33463469,8.80745856 2.19715561,8.1359116 2.19715561,7.42209945 C2.19715561,6.70202578 2.33463469,6.02578269 2.60959286,5.39337017 C2.88455103,4.76095764 3.26380368,4.20524862 3.74735081,3.72624309 C4.23089794,3.24723757 4.79345603,2.86998158 5.4350251,2.59447514 C6.07659416,2.31896869 6.75766871,2.18121547 7.47824875,2.18121547 C8.20514966,2.18121547 8.88780442,2.31896869 9.52621305,2.59447514 C10.1646217,2.86998158 10.7255996,3.24723757 11.2091467,3.72624309 C11.6926938,4.20524862 12.0719465,4.76095764 12.3469046,5.39337017 C12.6218628,6.02578269 12.7593419,6.70202578 12.7593419,7.42209945 C12.7593419,8.1359116 12.6218628,8.80745856 12.3469046,9.43674033 C12.0719465,10.0660221 11.6926938,10.6232965 11.2091467,11.1085635 C10.7255996,11.5938306 10.1646217,11.9726519 9.52621305,12.2450276 C8.88780442,12.5174033 8.20514966,12.6535912 7.47824875,12.6535912 Z" class="color000 svgShape"></path></svg></g></svg>